<mxfile host="65bd71144e">
    <diagram id="L0HgkRsHsnBRgu8tNA0i" name="Page-1">
        <mxGraphModel dx="871" dy="626" grid="1" gridSize="10" guides="1" tooltips="1" connect="1" arrows="1" fold="1" page="1" pageScale="1" pageWidth="850" pageHeight="1100" math="0" shadow="0">
            <root>
                <mxCell id="0"/>
                <mxCell id="1" parent="0"/>
                <mxCell id="5" value="" style="edgeStyle=none;html=1;fontColor=#000000;" edge="1" parent="1" source="2" target="4">
                    <mxGeometry relative="1" as="geometry"/>
                </mxCell>
                <mxCell id="13" value="" style="edgeStyle=none;html=1;fontColor=#000000;" edge="1" parent="1" source="2" target="12">
                    <mxGeometry relative="1" as="geometry"/>
                </mxCell>
                <mxCell id="2" value="NEW_QUERY" style="ellipse;fillColor=strokeColor;fontColor=#000000;" vertex="1" parent="1">
                    <mxGeometry x="240" y="40" width="130" height="130" as="geometry"/>
                </mxCell>
                <mxCell id="8" value="" style="edgeStyle=none;html=1;fontColor=#000000;" edge="1" parent="1" source="4" target="7">
                    <mxGeometry relative="1" as="geometry"/>
                </mxCell>
                <mxCell id="4" value="START&lt;br&gt;HEADER" style="ellipse;whiteSpace=wrap;html=1;fillColor=strokeColor;fontColor=#000000;" vertex="1" parent="1">
                    <mxGeometry x="475" y="65" width="80" height="80" as="geometry"/>
                </mxCell>
                <mxCell id="10" value="" style="edgeStyle=none;html=1;fontColor=#000000;" edge="1" parent="1" source="7" target="9">
                    <mxGeometry relative="1" as="geometry"/>
                </mxCell>
                <mxCell id="7" value="METADATA" style="ellipse;whiteSpace=wrap;html=1;fillColor=strokeColor;fontColor=#000000;" vertex="1" parent="1">
                    <mxGeometry x="475" y="225" width="80" height="80" as="geometry"/>
                </mxCell>
                <mxCell id="15" value="" style="edgeStyle=none;html=1;fontColor=#000000;" edge="1" parent="1" source="9" target="14">
                    <mxGeometry relative="1" as="geometry"/>
                </mxCell>
                <mxCell id="9" value="END HEADER" style="ellipse;whiteSpace=wrap;html=1;fillColor=strokeColor;fontColor=#000000;" vertex="1" parent="1">
                    <mxGeometry x="475" y="385" width="80" height="80" as="geometry"/>
                </mxCell>
                <mxCell id="12" value="QUICK&lt;br&gt;NAME" style="ellipse;whiteSpace=wrap;html=1;fillColor=strokeColor;fontColor=#000000;" vertex="1" parent="1">
                    <mxGeometry x="265" y="275" width="80" height="80" as="geometry"/>
                </mxCell>
                <mxCell id="14" value="QUERY" style="ellipse;whiteSpace=wrap;html=1;fillColor=strokeColor;fontColor=#000000;" vertex="1" parent="1">
                    <mxGeometry x="265" y="490" width="80" height="80" as="geometry"/>
                </mxCell>
            </root>
        </mxGraphModel>
    </diagram>
</mxfile>